HIERARCHY
ROOT Hips
{
	OFFSET 0.00000 0.00000 0.00000
	CHANNELS 6 Xposition Yposition Zposition Zrotation Yrotation Xrotation 
	JOINT LHipJoint
	{
		OFFSET 0 0 0
		CHANNELS 3 Zrotation Yrotation Xrotation
		JOINT LeftUpLeg
		{
			OFFSET 1.38615 -1.80049 0.80104
			CHANNELS 3 Zrotation Yrotation Xrotation
			JOINT LeftLeg
			{
				OFFSET 2.50172 -6.87341 0.00000
				CHANNELS 3 Zrotation Yrotation Xrotation
				JOINT LeftFoot
				{
					OFFSET 2.67523 -7.35014 0.00000
					CHANNELS 3 Zrotation Yrotation Xrotation
					JOINT LeftToeBase
					{
						OFFSET 0.17446 -0.47932 2.13155
						CHANNELS 3 Zrotation Yrotation Xrotation
						End Site
						{
							OFFSET 0.00000 -0.00000 1.10023
						}
					}
				}
			}
		}
	}
	JOINT RHipJoint
	{
		OFFSET 0 0 0
		CHANNELS 3 Zrotation Yrotation Xrotation
		JOINT RightUpLeg
		{
			OFFSET -1.18047 -1.80049 0.80104
			CHANNELS 3 Zrotation Yrotation Xrotation
			JOINT RightLeg
			{
				OFFSET -2.59789 -7.13765 0.00000
				CHANNELS 3 Zrotation Yrotation Xrotation
				JOINT RightFoot
				{
					OFFSET -2.62125 -7.20183 0.00000
					CHANNELS 3 Zrotation Yrotation Xrotation
					JOINT RightToeBase
					{
						OFFSET -0.31287 -0.85960 2.07814
						CHANNELS 3 Zrotation Yrotation Xrotation
						End Site
						{
							OFFSET -0.00000 -0.00000 1.11766
						}
					}
				}
			}
		}
	}
	JOINT LowerBack
	{
		OFFSET 0 0 0
		CHANNELS 3 Zrotation Yrotation Xrotation
		JOINT Spine
		{
			OFFSET -0.01587 2.16157 -0.12309
			CHANNELS 3 Zrotation Yrotation Xrotation
			JOINT Spine1
			{
				OFFSET 0.04727 2.16674 -0.03569
				CHANNELS 3 Zrotation Yrotation Xrotation
				JOINT Neck
				{
					OFFSET 0 0 0
					CHANNELS 3 Zrotation Yrotation Xrotation
					JOINT Neck1
					{
						OFFSET -0.08586 1.60335 0.32783
						CHANNELS 3 Zrotation Yrotation Xrotation
						JOINT Head
						{
							OFFSET 0.07583 1.65857 -0.31618
							CHANNELS 3 Zrotation Yrotation Xrotation
							End Site
							{
								OFFSET 0.03386 1.69434 -0.14584
							}
						}
					}
				}
				JOINT LeftShoulder
				{
					OFFSET 0 0 0
					CHANNELS 3 Zrotation Yrotation Xrotation
					JOINT LeftArm
					{
						OFFSET 3.17393 1.01901 -0.52897
						CHANNELS 3 Zrotation Yrotation Xrotation
						JOINT LeftForeArm
						{
							OFFSET 5.25287 -0.00000 -0.00000
							CHANNELS 3 Zrotation Yrotation Xrotation
							JOINT LeftHand
							{
								OFFSET 3.51014 -0.00000 0.00000
								CHANNELS 3 Zrotation Yrotation Xrotation
								JOINT LeftFingerBase
								{
									OFFSET 0 0 0
									CHANNELS 3 Zrotation Yrotation Xrotation
									JOINT LeftHandIndex1
									{
										OFFSET 0.70618 -0.00000 -0.00000
										CHANNELS 3 Zrotation Yrotation Xrotation
										End Site
										{
											OFFSET 0.56934 -0.00000 -0.00000
										}
									}
								}
								JOINT LThumb
								{
									OFFSET 0 0 0
									CHANNELS 3 Zrotation Yrotation Xrotation
									End Site
									{
										OFFSET 0.57803 -0.00000 0.57803
									}
								}
							}
						}
					}
				}
				JOINT RightShoulder
				{
					OFFSET 0 0 0
					CHANNELS 3 Zrotation Yrotation Xrotation
					JOINT RightArm
					{
						OFFSET -2.99471 1.26495 -0.61125
						CHANNELS 3 Zrotation Yrotation Xrotation
						JOINT RightForeArm
						{
							OFFSET -5.28721 -0.00000 -0.00000
							CHANNELS 3 Zrotation Yrotation Xrotation
							JOINT RightHand
							{
								OFFSET -3.50544 -0.00000 0.00000
								CHANNELS 3 Zrotation Yrotation Xrotation
								JOINT RightFingerBase
								{
									OFFSET 0 0 0
									CHANNELS 3 Zrotation Yrotation Xrotation
									JOINT RightHandIndex1
									{
										OFFSET -0.88500 -0.00000 -0.00000
										CHANNELS 3 Zrotation Yrotation Xrotation
										End Site
										{
											OFFSET -0.71351 -0.00000 -0.00000
										}
									}
								}
								JOINT RThumb
								{
									OFFSET 0 0 0
									CHANNELS 3 Zrotation Yrotation Xrotation
									End Site
									{
										OFFSET -0.72440 -0.00000 0.72440
									}
								}
							}
						}
					}
				}
			}
		}
	}
}
MOTION
Frames: 13
Frame Time: .0083333
-4.2125 17.8917 5.3238 -1.3500 4.4151 2.3600 0.0000 0.0000 0.0000 -14.3057 -5.5374 -23.3038 1.4842 7.6971 21.7978 -0.1596 -8.1168 -1.2985 0.7534 -5.5440 -15.4668 0.0000 0.0000 0.0000 23.2547 1.1527 0.6875 -4.9633 -13.3423 40.6637 -0.4822 -4.8042 -15.7599 -2.6989 10.1909 -29.5971 1.1820 2.4890 0.4285 1.9753 3.2967 1.4624 1.3819 1.6498 1.2085 -11.0162 -5.7180 -17.3869 6.5794 -6.4978 21.5076 3.2395 -3.1411 10.3458 -0.0000 -0.0000 0.0000 -86.1969 6.0478 -25.1258 8.2058 -13.8859 -1.0009 -0.0000 -0.0000 33.0935 5.0120 47.1546 3.6791 -7.1250 0.0000 -0.0000 16.1942 -15.6235 -168.2815 -0.0000 -0.0000 0.0000 85.5864 0.9773 -2.6242 -10.0011 16.7414 -1.4753 0.0000 0.0000 15.3980 -12.4603 6.3599 -1.4022 7.1250 -0.0000 -0.0000 10.5123 -23.4866 5.5423
-4.1503 17.9042 5.4750 -0.1641 4.3930 2.4489 0.0000 0.0000 0.0000 -15.9131 -5.2818 -22.9085 1.5375 7.8277 22.1920 -0.1970 -9.1943 -1.7570 0.7389 -5.4915 -15.3159 0.0000 0.0000 0.0000 21.4543 1.3171 -0.9351 -5.6796 -14.1105 43.6817 -0.3115 -4.5364 -13.2017 -2.2227 9.3154 -26.7870 -0.0220 2.3070 0.3797 1.6356 3.0595 1.5763 1.7092 1.5189 1.3114 -11.1666 -5.6486 -18.4197 7.0610 -6.3995 22.2925 3.4511 -3.0381 10.8402 0.0000 0.0000 0.0000 -86.3461 7.2304 -24.1067 8.3294 -14.0855 -1.0308 -0.0000 -0.0000 31.4650 5.9274 47.5616 4.3815 -7.1250 0.0000 -0.0000 15.7487 -15.0447 -168.4264 0.0000 0.0000 0.0000 85.0352 0.6159 -3.7943 -9.9541 16.6678 -1.4618 0.0000 0.0000 16.8549 -12.5174 6.1804 -1.3692 7.1250 -0.0000 -0.0000 10.4819 -23.6658 5.4818
-4.0973 17.9056 5.6188 0.4653 4.2292 2.2921 0.0000 0.0000 0.0000 -16.8353 -4.9077 -22.3268 1.5716 7.9101 22.4412 -0.2158 -9.8043 -2.1413 0.6601 -5.1962 -14.4690 0.0000 0.0000 0.0000 20.3626 1.6917 -2.3988 -6.4368 -14.8387 46.7106 -0.1305 -4.4282 -9.8812 -1.8224 8.4859 -24.2001 -0.7543 2.2144 0.6521 1.4991 2.9403 1.6367 1.9672 1.4520 1.1948 -11.0909 -5.6273 -18.5057 7.1142 -6.3965 22.2682 3.4571 -3.0223 10.8460 0.0000 0.0000 0.0000 -86.6091 8.2578 -24.5052 8.3666 -14.1454 -1.0399 -0.0000 -0.0000 31.2514 6.4690 47.2344 4.7585 -7.1250 0.0000 -0.0000 15.4973 -15.2375 -168.6929 0.0000 0.0000 0.0000 84.4758 -0.1327 -4.4840 -10.1451 16.9662 -1.5170 0.0000 0.0000 17.3358 -12.3981 5.7277 -1.2568 7.1250 -0.0000 -0.0000 10.5995 -24.1242 5.4312
-4.0556 17.9026 5.7514 0.6573 4.0898 2.0478 0.0000 0.0000 0.0000 -17.2141 -4.5016 -21.9012 1.6397 8.0714 22.9313 -0.2011 -10.0142 -2.8747 0.6539 -5.1722 -14.4003 0.0000 0.0000 0.0000 19.8444 2.2517 -3.8130 -7.1645 -15.4689 49.4938 0.0209 -4.8099 -6.0804 -1.1057 6.6809 -18.7735 -1.1157 2.1011 1.1262 1.4949 2.7874 1.6604 2.1457 1.3736 0.9428 -10.9108 -5.5552 -17.9597 7.0488 -6.3620 21.6077 3.4065 -3.0063 10.4873 0.0000 0.0000 0.0000 -86.9595 9.3309 -24.7823 8.5464 -14.4346 -1.0843 -0.0000 -0.0000 30.6110 6.6482 47.6427 4.9228 -7.1250 0.0000 -0.0000 15.4071 -14.8134 -168.6181 0.0000 0.0000 0.0000 83.8837 -0.8224 -4.9219 -10.2769 17.1715 -1.5557 0.0000 0.0000 17.3815 -12.2057 5.2708 -1.1384 7.1250 -0.0000 -0.0000 10.7735 -24.5876 5.4057
-3.9930 17.9010 5.8888 1.8372 4.1905 2.3030 0.0000 0.0000 0.0000 -18.8304 -4.4456 -21.6999 1.6964 8.2028 23.3318 -0.1692 -10.1153 -3.8067 0.7672 -5.5933 -15.6089 0.0000 0.0000 0.0000 17.8946 2.2949 -5.7776 -7.8855 -16.0344 52.1494 0.0733 -4.8221 -2.2795 -0.5583 4.7861 -13.2995 -2.2177 1.8869 0.9226 1.1505 2.5043 1.7129 2.4199 1.2193 1.0929 -10.8654 -5.5504 -17.9988 7.0990 -6.3697 21.4406 3.4131 -2.9987 10.4346 -0.0000 -0.0000 0.0000 -87.2767 10.1786 -24.5622 8.7105 -14.6978 -1.1255 -0.0000 -0.0000 29.2527 6.9788 48.2573 5.2186 -7.1250 0.0000 -0.0000 15.2481 -14.1632 -168.5248 -0.0000 -0.0000 0.0000 83.1730 -1.1667 -5.0102 -10.2528 17.1340 -1.5486 0.0000 0.0000 17.0245 -12.0863 4.8998 -1.0478 7.1250 -0.0000 -0.0000 10.8895 -24.9623 5.3694
-3.9395 17.8970 6.0582 0.5904 3.7544 1.1815 0.0000 0.0000 0.0000 -17.7294 -3.2583 -20.2938 1.7197 8.2560 23.4944 -0.1461 -10.4736 -4.7093 0.9239 -6.1238 -17.1441 0.0000 0.0000 0.0000 19.0603 2.6617 -6.0396 -8.5447 -16.5056 54.5017 0.0622 -5.1082 0.8668 -0.2714 3.3510 -9.2575 -0.9234 1.8684 1.4344 1.4580 2.4733 2.2461 2.0049 1.2112 1.3948 -10.9031 -5.7344 -18.5321 7.4959 -6.6717 21.6123 3.5118 -3.0837 10.6449 0.0000 -0.0000 0.0000 -87.5405 10.7742 -24.2155 8.8388 -14.9031 -1.1583 -0.0000 -0.0000 27.7036 7.7699 48.4330 5.8290 -7.1250 0.0000 -0.0000 14.8828 -13.8250 -168.7095 0.0000 -0.0000 0.0000 82.6104 -1.3270 -5.3007 -10.2186 17.0808 -1.5385 0.0000 0.0000 16.5795 -11.8922 4.6665 -0.9815 7.1250 -0.0000 -0.0000 11.0517 -25.1994 5.3901
-3.8879 17.9052 6.2306 1.5119 3.2032 0.8228 0.0000 0.0000 0.0000 -19.0388 -2.2520 -19.3221 1.7067 8.2263 23.4036 -0.1138 -10.6508 -5.5209 1.0573 -6.5381 -18.3538 0.0000 0.0000 0.0000 17.5836 3.0738 -7.0921 -9.2474 -16.9643 56.9417 -0.0088 -4.7469 3.6245 -0.1024 2.0631 -5.6800 -1.8931 1.8726 1.3015 1.1571 2.4815 2.6273 2.2526 1.1939 1.8344 -10.9366 -5.8762 -19.0786 7.9973 -6.9458 21.8047 3.6534 -3.1410 10.8692 -0.0000 0.0000 0.0000 -87.7546 11.4992 -23.1476 9.1038 -15.3258 -1.2274 -0.0000 -0.0000 25.5171 8.0736 48.7947 6.0917 -7.1250 0.0000 -0.0000 14.7468 -13.4176 -168.6886 -0.0000 0.0000 0.0000 82.3332 -1.5715 -6.0434 -10.4405 17.4256 -1.6043 0.0000 0.0000 16.1097 -11.4206 4.1855 -0.8447 7.1250 -0.0000 -0.0000 11.4425 -25.6871 5.4552
-3.8279 17.9157 6.3871 3.5412 2.8783 0.9738 0.0000 0.0000 0.0000 -21.5814 -1.7840 -18.7545 1.7007 8.2127 23.3619 -0.0618 -10.5126 -6.3427 1.1469 -6.8004 -19.1253 0.0000 0.0000 0.0000 14.6637 3.3163 -8.8178 -9.9679 -17.3918 59.3811 -0.0685 -4.4939 5.2424 -0.0096 0.6314 -1.7351 -3.7602 1.8666 1.1206 0.5130 2.4905 2.6611 2.6431 1.1673 1.9246 -10.7081 -5.6869 -18.4393 7.9147 -6.7595 21.1871 3.6137 -3.0602 10.4891 -0.0000 -0.0000 0.0000 -87.8649 12.5201 -21.6872 9.4012 -15.7975 -1.3072 -0.0000 -0.0000 23.3072 7.3219 49.1224 5.5491 -7.1250 0.0000 -0.0000 15.0922 -13.2740 -168.3564 -0.0000 -0.0000 0.0000 82.1242 -2.2625 -6.5411 -10.8403 18.0430 -1.7261 0.0000 0.0000 15.1392 -11.1391 3.6371 -0.7156 7.1250 -0.0000 -0.0000 11.7016 -26.2373 5.4298
-3.7784 17.9218 6.5200 4.4379 2.6225 0.9926 0.0000 0.0000 0.0000 -22.7724 -1.4123 -18.0902 1.6573 8.1125 23.0562 -0.0320 -10.3558 -6.7328 1.1154 -6.7094 -18.8572 0.0000 0.0000 0.0000 13.2378 3.5923 -10.4900 -10.6927 -17.7814 61.7796 -0.0529 -5.1072 5.1007 -0.0001 0.0632 -0.1736 -4.5165 1.8656 1.4265 0.1757 2.4758 2.5079 2.7046 1.1594 1.5818 -10.3312 -5.4539 -17.4284 7.6264 -6.5295 20.3886 3.4846 -2.9784 9.9632 0.0000 0.0000 0.0000 -87.9302 13.3898 -21.2409 9.5227 -15.9895 -1.3405 -0.0000 -0.0000 22.3530 6.2467 49.1556 4.7336 -7.1250 0.0000 -0.0000 15.5790 -13.4740 -168.0190 0.0000 0.0000 0.0000 81.8898 -3.0522 -7.1570 -10.9984 18.2859 -1.7754 0.0000 0.0000 14.4749 -11.4551 3.7731 -0.7640 7.1250 -0.0000 -0.0000 11.4529 -26.0990 5.3477
-3.7415 17.9244 6.6406 4.4915 2.3229 0.8945 0.0000 0.0000 0.0000 -22.9572 -0.9825 -17.4909 1.6222 8.0302 22.8059 -0.0020 -10.1969 -7.1170 1.1469 -6.8003 -19.1251 0.0000 0.0000 0.0000 12.9778 3.9188 -12.0068 -11.3821 -18.1171 64.0164 0.0179 -6.1882 3.8311 -0.0064 0.5179 -1.4231 -4.5761 1.8196 1.6672 0.1232 2.4032 2.5519 2.6769 1.1238 1.4979 -10.2208 -5.3987 -17.1967 7.5922 -6.4848 20.1361 3.4606 -2.9578 9.8205 -0.0000 0.0000 0.0000 -88.0055 13.7301 -20.9852 9.4983 -15.9509 -1.3337 -0.0000 -0.0000 21.5626 5.3571 48.9694 4.0462 -7.1250 0.0000 -0.0000 15.9863 -13.8385 -167.8077 -0.0000 0.0000 0.0000 81.5802 -3.3412 -7.9124 -11.0360 18.3435 -1.7872 0.0000 0.0000 13.8144 -11.8444 4.0645 -0.8516 7.1250 -0.0000 -0.0000 11.1366 -25.8036 5.2730
-3.7000 17.9290 6.7759 4.4930 2.0899 0.7779 0.0000 0.0000 0.0000 -23.1176 -0.6051 -16.8824 1.6145 8.0122 22.7513 0.0503 -10.0325 -7.8427 1.3265 -7.2938 -20.5886 0.0000 0.0000 0.0000 12.7504 4.0421 -13.4234 -12.0016 -18.3913 65.9938 0.0986 -7.0700 2.0736 -0.0236 0.9918 -2.7262 -4.6072 1.6913 1.3938 0.1770 2.2544 2.8675 2.7666 1.0313 1.9861 -10.4300 -5.3898 -17.2407 7.7307 -6.4390 20.0605 3.5497 -2.9365 9.8101 0.0000 0.0000 0.0000 -88.2198 13.7331 -20.6920 9.4317 -15.8457 -1.3155 -0.0000 -0.0000 20.6882 4.5961 48.4650 3.4437 -7.1250 0.0000 -0.0000 16.3478 -14.4734 -167.7382 0.0000 0.0000 0.0000 81.1025 -3.2290 -8.4597 -11.1721 18.5515 -1.8303 0.0000 0.0000 12.6898 -12.1328 4.1106 -0.8829 7.1250 -0.0000 -0.0000 10.9173 -25.7539 5.1784
-3.6536 17.9372 6.9227 4.4026 1.9607 0.5189 0.0000 0.0000 0.0000 -23.1949 -0.2687 -16.0548 1.6046 7.9889 22.6803 0.0926 -9.9003 -8.4058 1.4720 -7.6667 -21.7063 0.0000 0.0000 0.0000 12.6107 3.9778 -14.6531 -12.5243 -18.6036 67.6414 0.1703 -7.8844 0.3035 -0.0330 1.1732 -3.2255 -4.5314 1.5247 1.1258 0.2733 2.0535 3.2100 2.8383 0.9131 2.5064 -10.4189 -5.2560 -17.2917 7.6499 -6.2317 20.0977 3.5495 -2.8478 9.8081 -0.0000 0.0000 0.0000 -88.5245 13.5827 -21.6769 9.2690 -15.5881 -1.2714 -0.0000 -0.0000 21.2443 3.7184 47.5611 2.7459 -7.1250 0.0000 -0.0000 16.7933 -15.5083 -167.7638 -0.0000 0.0000 0.0000 80.6396 -3.1627 -8.8389 -11.3627 18.8421 -1.8914 0.0000 0.0000 11.7145 -12.1876 4.0140 -0.8662 7.1250 -0.0000 -0.0000 10.8844 -25.8504 5.1372
-3.6080 17.9477 7.0641 4.3611 1.9119 0.2731 0.0000 0.0000 0.0000 -23.3212 -0.0159 -15.1665 1.5714 7.9096 22.4399 0.1065 -9.7319 -8.5165 1.4729 -7.6691 -21.7134 0.0000 0.0000 0.0000 12.4065 3.7521 -15.9224 -12.9605 -18.7679 69.0028 0.2309 -8.6568 -1.3414 -0.0583 1.5576 -4.2844 -4.3304 1.4606 1.2488 0.2536 1.9640 3.3228 2.7035 0.8704 2.5675 -10.2283 -5.2341 -17.3737 7.3317 -6.1824 20.3535 3.4138 -2.8446 9.8914 0.0000 0.0000 0.0000 -88.5965 13.5611 -22.4975 9.1091 -15.3341 -1.2288 -0.0000 -0.0000 22.2879 2.0824 46.5937 1.5132 -7.1250 0.0000 -0.0000 17.6340 -16.7560 -167.5918 0.0000 0.0000 0.0000 80.4006 -3.4913 -9.4405 -11.5670 19.1521 -1.9579 0.0000 0.0000 10.7098 -11.9954 3.8478 -0.8169 7.1250 -0.0000 -0.0000 11.0420 -26.0192 5.1698
